<svg id="Layer_1" data-name="Layer 1" xmlns="http://www.w3.org/2000/svg" viewBox="0 0 15.06 10.67">
  <g id="noun_usa_flag_542840" data-name="noun usa flag 542840">
    <g id="Group_40" data-name="Group 40">
      <g id="Group_39" data-name="Group 39">
        <rect id="Rectangle_70" data-name="Rectangle 70" y="9.85" width="15.06" height="0.82" fill="#22b2e6" />
        <rect id="Rectangle_71" data-name="Rectangle 71" y="8.21" width="15.06" height="0.82" fill="#22b2e6" />
        <rect id="Rectangle_72" data-name="Rectangle 72" y="6.57" width="15.06" height="0.82" fill="#22b2e6" />
        <path id="Path_48" data-name="Path 48" d="M15.06.82V0H0V5.75H15.06V4.92h-8V4.1h8V3.28h-8V2.46h8V1.64h-8V.82Zm-9.41.3L5.71,1l0,0a.05.05,0,0,1,0,0l.06.12s0,0,0,0l.14,0a0,0,0,0,1,0,.05s0,0,0,0L6,1.34a.07.07,0,0,0,0,0l0,.13s0,.05,0,.06h0l-.12-.06h0s0,0,0,0l-.12.06h0a.05.05,0,0,1,0-.05h0l0-.13s0,0,0,0l-.1-.09a.09.09,0,0,1,0-.07h0l.14,0s0,0,0,0ZM6,2.59s0,.05,0,.05h0l-.12-.07h0l-.12.07h0a0,0,0,0,1,0-.05h0l0-.14s0,0,0,0l-.1-.09a0,0,0,0,1,0-.07l0,0h.13l0,0,.06-.12s0,0,0,0,0,0,0,0l.06.12,0,0H6s.05,0,0,.06a0,0,0,0,1,0,0L6,2.41a.08.08,0,0,0,0,0ZM6,3.65s0,.06,0,.06h0l-.12-.07h0l-.12.07h0a0,0,0,0,1,0,0h0l0-.13s0,0,0,0l-.1-.1a0,0,0,0,1,0-.07h0l.13,0s0,0,0,0l.06-.12,0,0s0,0,0,0l.06.12s0,0,0,0L6,3.3s0,0,0,.05a0,0,0,0,1,0,0l-.1.1a.08.08,0,0,0,0,0Zm-.55.54s0,0,0,0h0l-.12-.06H5.18l-.12.06H5a.06.06,0,0,1,0-.06H5l0-.14S5,4,5,4l-.1-.09a0,0,0,0,1,0-.07l0,0,.13,0a.05.05,0,0,0,0,0l.06-.12s0,0,0,0,0,0,0,0l.06.12,0,0,.13,0s0,0,0,.06a0,0,0,0,1,0,0L5.4,4a.08.08,0,0,0,0,0Zm-.55-.54s0,.06,0,.06h0l-.12-.07h0l-.12.07h0a0,0,0,0,1,0,0h0l0-.13a.08.08,0,0,0,0,0l-.1-.1a0,0,0,0,1,0-.07h0l.13,0s0,0,0,0l.06-.12a.06.06,0,0,1,.07,0s0,0,0,0l.06.12a0,0,0,0,0,0,0l.13,0s0,0,0,.05a0,0,0,0,1,0,0l-.1.1s0,0,0,0Zm-.56.54a0,0,0,0,1,0,0h0l-.12-.06h0L4,4.24h0a0,0,0,0,1,0,0h0l0-.14a.08.08,0,0,0,0,0l-.1-.09a0,0,0,0,1,0-.07h0l.13,0a.05.05,0,0,0,0,0l.06-.12s0,0,0,0a.05.05,0,0,1,.05,0l.06.12,0,0,.14,0a.07.07,0,0,1,0,.06l0,0L4.3,4a.06.06,0,0,0,0,0Zm-.54-.54a.06.06,0,0,1,0,.06h0l-.11-.07H3.53l-.12.07h0a0,0,0,0,1-.05,0h0l0-.13s0,0,0,0l-.1-.1a0,0,0,0,1,0-.07h0l.13,0,0,0,.06-.12s0,0,0,0,0,0,0,0l.06.12,0,0,.13,0s0,0,0,.05a0,0,0,0,1,0,0l-.1.1a.05.05,0,0,0,0,0Zm-.56.54s0,0,0,0h0L3,4.18H3l-.12.07h0a0,0,0,0,1,0,0h0l0-.14a.06.06,0,0,0,0,0l-.1-.09a0,0,0,0,1,0-.07s0,0,0,0l.14,0,0,0L3,3.67a.05.05,0,0,1,0,0s0,0,0,0l.06.12a.05.05,0,0,0,0,0l.13,0s0,0,0,.06a0,0,0,0,1,0,0L3.2,4a.08.08,0,0,0,0,0Zm-.55-.54a0,0,0,0,1,0,.06h0l-.12-.07h0l-.12.07h0a0,0,0,0,1,0,0h0l0-.13s0,0,0,0l-.1-.1a0,0,0,0,1,0-.07h0l.13,0s0,0,0,0l.06-.12a0,0,0,0,1,.06,0l0,0,.06.12s0,0,0,0l.13,0s0,0,0,.05a0,0,0,0,1,0,0l-.1.1s0,0,0,0Zm-.55.54s0,0,0,0H2l-.11-.06H1.88l-.12.06h0a0,0,0,0,1-.05,0h0l0-.14,0,0-.1-.09a0,0,0,0,1,0-.07h0l.13,0,0,0,.06-.12s0,0,0,0,0,0,0,0L2,3.79a.05.05,0,0,0,0,0l.13,0s.05,0,0,.05a0,0,0,0,1,0,0L2.1,4s0,0,0,0Zm-.55-.54a0,0,0,0,1,0,.06h0l-.12-.07h0l-.12.07h0a0,0,0,0,1-.05,0h0l0-.13s0,0,0,0l-.1-.1a0,0,0,0,1,0-.07h0l.13,0,0,0,.06-.12s0,0,0,0,0,0,0,0l.06.12,0,0,.13,0s0,0,0,.05a0,0,0,0,1,0,0l-.1.1a.05.05,0,0,0,0,0ZM1.15,2.41l-.1-.1s0,0,0-.06l0,0,.13,0,0,0,.06-.12s0,0,0,0,0,0,0,0l.06.12,0,0,.13,0s0,0,0,.06,0,0,0,0l-.1.1a.08.08,0,0,0,0,0l0,.13s0,.06,0,.06h0l-.1,0h0l-.12.06h0a0,0,0,0,1-.05,0h0l0-.13A0,0,0,0,0,1.15,2.41Zm4.27-.36s0,.05,0,.05h0L5.23,2H5.18l-.12.06a0,0,0,0,1-.06,0,0,0,0,0,1,0,0l0-.13s0,0,0,0l-.1-.1a0,0,0,0,1,0-.07h0l.13,0s0,0,0,0l.06-.12a0,0,0,0,1,0,0l0,0,.06.12s0,0,0,0l.13,0s0,0,0,.05a0,0,0,0,1,0,0l-.1.1a.05.05,0,0,0,0,0Zm0,1.07s0,0,0,0h0l-.12-.06H5.18l-.12.06H5a0,0,0,0,1,0,0H5L5,3s0,0,0,0l-.1-.09a0,0,0,0,1,0-.07h0l.13,0,0,0,.06-.12s0,0,0,0l0,0,.06.12s0,0,0,0l.13,0s0,0,0,0a0,0,0,0,1,0,0L5.4,3a.05.05,0,0,0,0,0Zm-.49-.89a.07.07,0,0,1,0,.06,0,0,0,0,1,0,0l-.1.1a.06.06,0,0,0,0,0l0,.13a0,0,0,0,1,0,.06h0l-.11,0a0,0,0,0,0,0,0l-.12.06h0a0,0,0,0,1,0,0h0l0-.13a.08.08,0,0,0,0,0l-.1-.09a0,0,0,0,1,0-.07h0l.13,0,0,0,.06-.12a.06.06,0,0,1,.07,0l0,0,.06.12s0,0,0,0Zm-.61.89s0,0,0,0h0l-.12-.06h0L4,3.17h0a0,0,0,0,1,0,0h0l0-.14a.08.08,0,0,0,0,0l-.1-.09a0,0,0,0,1,0-.07h0l.13,0s0,0,0,0l.06-.12s0,0,0,0a0,0,0,0,1,0,0l.06.12s0,0,0,0l.13,0s0,0,0,0a0,0,0,0,1,0,0L4.3,3s0,0,0,0ZM4.4,1.78l-.1.1s0,0,0,0l0,.13s0,.05,0,.05h0L4.12,2h0s0,0,0,0L4,2.1h0s0,0,0,0h0l0-.13s0,0,0,0l-.1-.1a0,0,0,0,1,0-.07h0l.13,0s0,0,0,0l.06-.12,0,0a0,0,0,0,1,0,0l.06.12s0,0,0,0l.13,0s0,0,0,.05A0,0,0,0,1,4.4,1.78Zm-.58.45s.05,0,0,.06a0,0,0,0,1,0,0l-.1.09a.08.08,0,0,0,0,0l0,.14s0,.05,0,.05h0l-.11-.06H3.53l-.12.06h0a0,0,0,0,1-.05,0h0l0-.13a0,0,0,0,0,0,0l-.1-.09a0,0,0,0,1,0-.07h0l.13,0s0,0,0,0l.06-.12a.05.05,0,0,1,0,0s0,0,0,0l.06.12,0,0Zm-.61.89s0,0,0,0h0L3,3.11H3l-.12.06h0a0,0,0,0,1,0,0h0l0-.14a.06.06,0,0,0,0,0l-.1-.09a0,0,0,0,1,0-.07h0l.14,0,0,0L3,2.6a0,0,0,0,1,0,0l0,0,.06.12s0,0,0,0l.13,0s0,0,0,0a0,0,0,0,1,0,0L3.2,3a.05.05,0,0,0,0,0ZM3.3,1.78l-.1.1a.05.05,0,0,0,0,0l0,.13a.05.05,0,0,1,0,.06h0L3,2H3S3,2,3,2l-.12.06a.06.06,0,0,1-.07,0v0l0-.13s0,0,0,0l-.1-.1a0,0,0,0,1,0-.07h0l.13,0s0,0,0,0L3,1.53a0,0,0,0,1,0,0,.05.05,0,0,1,0,0l.06.12s0,0,0,0l.13,0s0,0,0,.05A0,0,0,0,1,3.3,1.78Zm-.58.45s0,0,0,.06a0,0,0,0,1,0,0l-.1.09s0,0,0,0l0,.14s0,.05,0,.05h0l-.12-.06a0,0,0,0,0,0,0l-.12.06h0a0,0,0,0,1,0,0h0l0-.13a0,0,0,0,0,0,0l-.1-.09a0,0,0,0,1,0-.07h0l.13,0,0,0,.06-.12a0,0,0,0,1,.06,0l0,0,.06.12,0,0Zm-.61.89a0,0,0,0,1,0,0H2l-.12-.06h0l-.12.06h0a0,0,0,0,1-.05,0h0l0-.14s0,0,0,0l-.1-.09a0,0,0,0,1,0-.07h0l.13,0s0,0,0,0l.06-.12a0,0,0,0,1,0,0,0,0,0,0,1,0,0L2,2.72s0,0,0,0l.13,0s.05,0,0,0a0,0,0,0,1,0,0L2.1,3s0,0,0,0ZM2.2,1.78l-.1.1s0,0,0,0l0,.13s0,.05,0,.05H2L1.92,2h0s0,0,0,0l-.12.06h0s0,0,0,0h0l0-.13s0,0,0,0l-.1-.1a0,0,0,0,1,0-.07h0l.13,0s0,0,0,0l.06-.12s0,0,0,0a0,0,0,0,1,0,0L2,1.65s0,0,0,0l.13,0s.05,0,0,.05A0,0,0,0,1,2.2,1.78ZM4.93.63l.13,0a.05.05,0,0,0,0,0L5.16.46a.05.05,0,0,1,0,0s0,0,0,0l.07.13s0,0,0,0l.13,0a.06.06,0,0,1,0,.06s0,0,0,0l-.1.1s0,0,0,0l0,.13a.05.05,0,0,1,0,.06h0L5.22,1h0L5.06,1H5A.05.05,0,0,1,5,1H5L5,.85s0,0,0,0L4.9.71s0,0,0-.06l0,0Zm-.38.49L4.61,1a.06.06,0,0,1,.07,0l0,0,.06.12,0,0,.13,0a0,0,0,0,1,0,.05l0,0-.1.09a0,0,0,0,0,0,0l0,.13s0,.05,0,.05h0l-.12-.06a0,0,0,0,0,0,0l-.12.06h0a0,0,0,0,1,0,0h0l0-.13a.07.07,0,0,0,0,0l-.1-.09a0,0,0,0,1,0-.07h0l.14,0s0,0,0,0ZM3.83.63,4,.61a.05.05,0,0,0,0,0L4.06.46l0,0,.05,0,.06.13s0,0,0,0l.14,0s0,0,0,.06a0,0,0,0,1,0,0l-.1.1s0,0,0,0l0,.13s0,.05,0,.06h0L4.13,1h0L4,1h0a0,0,0,0,1,0-.05h0l0-.14a.08.08,0,0,0,0,0L3.8.72a.06.06,0,0,1,0-.07l0,0Zm-.38.49L3.51,1s0,0,0,0,0,0,0,0l.06.12,0,0,.13,0s.05,0,0,.05a0,0,0,0,1,0,0l-.1.09a.08.08,0,0,0,0,0l0,.13s0,.05,0,.05h0l-.12-.06h0l-.12.06h0a0,0,0,0,1,0,0h0l0-.13a.08.08,0,0,0,0,0l-.1-.09a0,0,0,0,1,0-.07h0l.13,0a.05.05,0,0,0,.05,0ZM2.73.63l.13,0a.05.05,0,0,0,0,0L3,.46A.05.05,0,0,1,3,.46L3.1.59a.05.05,0,0,0,0,0l.13,0a0,0,0,0,1,0,.06s0,0,0,0l-.1.1a.05.05,0,0,0,0,0l0,.13a.07.07,0,0,1,0,.06h0s0,0,0,0L3,1,3,1H3L2.86,1h0a0,0,0,0,1,0-.05h0l0-.13s0,0,0,0L2.7.71s0,0,0-.06l0,0Zm-.38.49L2.41,1a0,0,0,0,1,.06,0,0,0,0,0,1,0,0l.06.12,0,0,.13,0s0,0,0,.05a0,0,0,0,1,0,0l-.1.09a0,0,0,0,0,0,0l0,.13s0,.05,0,.05h0l-.12-.06a0,0,0,0,0-.05,0l-.11.06h0a0,0,0,0,1,0,0h0l0-.13s0,0,0,0l-.1-.09a.06.06,0,0,1,0-.07s0,0,0,0l.14,0a.05.05,0,0,0,0,0ZM1.63.63l.13,0a.05.05,0,0,0,0,0L1.86.46s0,0,0,0,0,0,0,0L2,.59a.05.05,0,0,0,0,0l.13,0a0,0,0,0,1,0,.06s0,0,0,0l-.1.1s0,0,0,0l0,.13a.05.05,0,0,1,0,.06H2L1.93,1H1.88L1.76,1h0A0,0,0,0,1,1.69,1h0l0-.14a.08.08,0,0,0,0,0L1.6.72a.06.06,0,0,1,0-.07l0,0Zm-.38.49L1.31,1s0,0,0,0,0,0,0,0l.06.12,0,0,.13,0s0,0,0,.05a0,0,0,0,1,0,0l-.1.09a.08.08,0,0,0,0,0l0,.13s0,.05,0,.05h0l-.11-.06H1.32l-.12.06h0a0,0,0,0,1-.05,0h0l0-.13a0,0,0,0,0,0,0L1,1.25a0,0,0,0,1,0-.07h0l.13,0a.05.05,0,0,0,.05,0ZM.53.63l.13,0s0,0,0,0L.75.46.8.44a.05.05,0,0,1,0,0L.9.59a.05.05,0,0,0,0,0l.13,0s0,0,0,.06a0,0,0,0,1,0,0L1,.81a.05.05,0,0,0,0,0L1,1S1,1,1,1h0L.82,1s0,0,0,0h0L.66,1h0A0,0,0,0,1,.59,1h0l0-.14s0,0,0,0L.5.72a.06.06,0,0,1,0-.07l0,0Zm0,1.07.13,0a0,0,0,0,0,0,0l.06-.12a0,0,0,0,1,.05,0,.05.05,0,0,1,0,0l.06.12s0,0,0,0l.13,0s.05,0,0,.05a0,0,0,0,1,0,0l-.1.1a.05.05,0,0,0,0,0l0,.13a.07.07,0,0,1,0,.06h0L.82,2h0L.65,2.1a0,0,0,0,1-.06,0,0,0,0,0,1,0,0l0-.13s0,0,0,0l-.1-.1a0,0,0,0,1,0-.07Zm0,1.07.13,0s0,0,0,0L.75,2.6a0,0,0,0,1,.05,0l0,0,.06.12s0,0,0,0l.13,0s.05,0,0,0a0,0,0,0,1,0,0L1,3A.05.05,0,0,0,1,3l0,.13a.07.07,0,0,1,0,.06h0L.82,3.11h0l-.12.06h0a0,0,0,0,1-.05-.05h0L.61,3a.05.05,0,0,0,0,0l-.1-.1a.06.06,0,0,1,0-.07,0,0,0,0,1,.05,0Zm0,1.07.13,0s0,0,0,0l.06-.12a.05.05,0,0,1,.05,0s0,0,0,0l.06.12,0,0,.13,0s0,0,0,.05v0L1,4l0,0,0,.14s0,0,0,0h0L.82,4.18h0l-.12.06h0a0,0,0,0,1-.05,0h0l0-.14s0,0,0,0L.5,3.92a0,0,0,0,1,0-.07l0,0ZM1.1,5l-.1.1s0,0,0,0l0,.13a.05.05,0,0,1,0,.06h0L.82,5.24h0L.66,5.3h0a0,0,0,0,1-.05,0h0l0-.13s0,0,0,0L.5,5a0,0,0,0,1,0-.07h0l.13,0,0,0,.06-.13,0,0,0,0,.06.13,0,0,.13,0a0,0,0,0,1,0,.06Zm.41-.21h0l-.12-.06h0l-.12.06h0a0,0,0,0,1-.05,0h0l0-.13a.07.07,0,0,0,0,0l-.1-.09a0,0,0,0,1,0-.07h0l.14,0,0,0L1.3,4.2a.05.05,0,0,1,.05,0,.05.05,0,0,1,0,0l.06.12,0,0,.14,0a0,0,0,0,1,0,0l0,0-.09.09s0,0,0,0l0,.13s0,0,0,.06ZM2.2,5l-.1.1s0,0,0,0l0,.13s0,0,0,.06H2l-.12-.06h0l-.12.06h0a0,0,0,0,1-.05,0h0l0-.13s0,0,0,0L1.6,5a0,0,0,0,1,0-.07h0l.13,0,0,0,.06-.13a.05.05,0,0,1,0,0l.05,0L2,4.86l0,0,.14,0a0,0,0,0,1,0,.06s0,0,0,0Zm.42-.21h0l-.12-.06h0l-.12.06h0a0,0,0,0,1,0,0h0l0-.13a0,0,0,0,0,0,0l-.1-.09a0,0,0,0,1,0-.07h0l.13,0,0,0,.06-.12a0,0,0,0,1,.06,0l0,0,.06.12,0,0,.13,0s0,0,0,0a0,0,0,0,1,0,0l-.1.09a0,0,0,0,0,0,0l0,.13s0,0,0,0h0ZM3.3,5l-.1.1a.05.05,0,0,0,0,0l0,.13a.05.05,0,0,1,0,.06h0L3,5.24H3l-.12.06h0a0,0,0,0,1,0,0h0l0-.13s0,0,0,0L2.7,5a0,0,0,0,1,0-.07h0l.13,0,0,0L3,4.73a.05.05,0,0,1,0,0s0,0,0,0l.06.12,0,0,.13,0s0,0,0,0A0,0,0,0,1,3.3,5Zm.41-.21h0l-.12-.06h0l-.12.06h0a0,0,0,0,1-.05,0h0l0-.13a.07.07,0,0,0,0,0l-.1-.09a0,0,0,0,1,0-.07h0l.14,0,0,0L3.5,4.2a.05.05,0,0,1,0,0,.05.05,0,0,1,0,0l.06.12,0,0,.14,0a0,0,0,0,1,0,0l0,0-.1.09a.07.07,0,0,0,0,0l0,.13s0,0,0,.06ZM4.4,5l-.1.1s0,0,0,0l0,.13s0,0,0,.06h0l-.12-.06h0L4,5.3h0a0,0,0,0,1,0,0h0l0-.13s0,0,0,0L3.8,5a0,0,0,0,1,0-.07h0l.13,0,0,0,.06-.13,0,0,.05,0,.06.13,0,0,.14,0a0,0,0,0,1,0,.06s0,0,0,0Zm.42-.21h0l-.12-.06h0l-.12.06h0a0,0,0,0,1,0,0h0l0-.13a0,0,0,0,0,0,0l-.1-.09a0,0,0,0,1,0-.07h0l.13,0,0,0,.06-.12a0,0,0,0,1,.06,0l0,0,.06.12,0,0,.13,0s0,0,0,0a0,0,0,0,1,0,0l-.1.09a0,0,0,0,0,0,0l0,.13s0,0,0,0h0ZM5.5,5l-.1.1a.05.05,0,0,0,0,0l0,.13a.05.05,0,0,1,0,.06h0l-.12-.06h0l-.12.06H5a.05.05,0,0,1,0,0H5l0-.13s0,0,0,0L4.9,5a0,0,0,0,1,0-.07h0l.13,0s0,0,0,0l.06-.12s0,0,0,0l0,0,.06.12s0,0,0,0l.13,0a0,0,0,0,1,0,0Zm.41-.21h0l-.12-.06h0l-.12.06h0a0,0,0,0,1,0,0h0l0-.13a.07.07,0,0,0,0,0l-.1-.09a0,0,0,0,1,0-.07h0l.14,0,0,0L5.7,4.2a.05.05,0,0,1,0,0,.05.05,0,0,1,0,0l.06.12,0,0,.14,0a0,0,0,0,1,0,0l0,0-.1.09a.07.07,0,0,0,0,0l0,.13s0,0,0,.06ZM6.6,5l-.1.1s0,0,0,0l0,.13s0,0,0,.06h0l-.12-.06h0l-.12.06h0a0,0,0,0,1,0,0h0l0-.13s0,0,0,0L6,5a0,0,0,0,1,0-.07H6l.13,0a.05.05,0,0,0,0,0l.06-.12s0,0,0,0,0,0,0,0l.06.12s0,0,0,0l.13,0s0,0,0,0a0,0,0,0,1,0,0Zm0-1.06L6.5,4s0,0,0,0l0,.14s0,0,0,0h0l-.12-.07h0l-.12.07h0a0,0,0,0,1,0,0h0l0-.14a.06.06,0,0,0,0,0L6,3.92a0,0,0,0,1,0-.07s0,0,0,0l.13,0,0,0,.06-.12a.05.05,0,0,1,0,0,.05.05,0,0,1,0,0l.06.12,0,0,.14,0s0,0,0,0,0,0,0,0Zm0-1.07-.1.09s0,0,0,0l0,.14s0,0,0,0h0l-.12-.06h0l-.12.06h0a0,0,0,0,1,0,0h0l0-.14a.06.06,0,0,0,0,0L6,2.85a0,0,0,0,1,0-.07H6l.13,0s0,0,0,0l.06-.12a0,0,0,0,1,0,0,0,0,0,0,1,0,0l.06.12s0,0,0,0l.13,0a0,0,0,0,1,0,.06v0Zm0-1.07-.1.09a0,0,0,0,0,0,0l0,.13s0,.05,0,.05h0L6.32,2s0,0,0,0,0,0,0,0l-.12.06h0a0,0,0,0,1,0-.05h0l0-.13s0,0,0,0L6,1.78a0,0,0,0,1,0-.07H6l.13,0s0,0,0,0l.06-.12s0,0,0,0,0,0,0,0l.06.12s0,0,0,0l.13,0s0,0,0,.05a0,0,0,0,1,0,0ZM6.6.71l-.1.1s0,0,0,0l0,.13a.05.05,0,0,1,0,.06h0L6.32,1h0L6.16,1h0s0,0,0-.05h0l0-.13s0,0,0,0L6,.71A0,0,0,0,1,6,.64H6l.13,0s0,0,0,0L6.25.46l0,0,0,0L6.4.58s0,0,0,0l.14,0a.05.05,0,0,1,0,.05l0,0Z" transform="translate(0 0)" fill="#22b2e6" />
      </g>
    </g>
  </g>
</svg>
