<svg id="Group_38" data-name="Group 38" xmlns="http://www.w3.org/2000/svg" viewBox="0 0 15.06 10.67">
  <path id="Path_47" data-name="Path 47" d="M7.4,8.5h.26L7.6,7.1a.17.17,0,0,1,.17-.19h0l1.31.19L9,6.7a.19.19,0,0,1,.06-.2l1.41-1.15-.26-.12a.18.18,0,0,1-.1-.21l.23-.88-.77.16a.18.18,0,0,1-.21-.12l-.09-.31-.68.75a.13.13,0,0,1-.21-.1L8.68,3l-.4.21A.19.19,0,0,1,8,3.09l-.5-.92L7,3.09a.19.19,0,0,1-.25.08L6.37,3l.3,1.56a.14.14,0,0,1-.11.14.12.12,0,0,1-.1,0l-.68-.75-.09.31a.18.18,0,0,1-.21.12l-.77-.16L4.94,5a.17.17,0,0,1-.1.21l-.26.12L6,6.5a.19.19,0,0,1,.06.2l-.13.4,1.32-.19a.2.2,0,0,1,.21.16v0Z"/>
  <rect id="Rectangle_68" data-name="Rectangle 68" width="3.7" height="10.67"/>
  <rect id="Rectangle_69" data-name="Rectangle 69" x="11.36" width="3.7" height="10.67"/>
</svg>
