<svg id="Layer_1" data-name="Layer 1" xmlns="http://www.w3.org/2000/svg" viewBox="0 0 25.84 26.68">
  <g id="noun_Map_972131" data-name="noun Map 972131">
    <g id="Group_271" data-name="Group 271">
      <path id="Path_144" data-name="Path 144" d="M7.77,5.57.46,3.29a.33.33,0,0,0-.32,0,.34.34,0,0,0-.14.3V24a.4.4,0,0,0,.24.36l7.31,2.28a.35.35,0,0,0,.33-.05.37.37,0,0,0,.16-.3V5.92A.37.37,0,0,0,7.77,5.57Z" transform="translate(0 0)"/>
      <path id="Path_145" data-name="Path 145" d="M16.36,12.83,13,6.23a4.57,4.57,0,0,1-.49-1.69L9.13,5.6A.37.37,0,0,0,8.86,6V26.31a.37.37,0,0,0,.16.3.39.39,0,0,0,.33.05l7.31-2.28A.36.36,0,0,0,16.9,24V13.37A1.28,1.28,0,0,1,16.36,12.83Z" transform="translate(0 0)"/>
      <path id="Path_146" data-name="Path 146" d="M25.51,5.57,22.15,4.51a4.86,4.86,0,0,1-.49,1.68c-.63,1.25-3.35,6.58-3.37,6.63a1,1,0,0,1-.52.49V24a.38.38,0,0,0,.27.36l7.31,2.28a.33.33,0,0,0,.33-.06.35.35,0,0,0,.16-.3V5.92A.49.49,0,0,0,25.51,5.57Z" transform="translate(0 0)"/>
      <path id="Path_147" data-name="Path 147" d="M20.9,5.82a4.37,4.37,0,0,0,.43-1.58,4,4,0,0,0-.43-2A4.07,4.07,0,0,0,19.37.57,4,4,0,0,0,17.28,0,4,4,0,0,0,13.5,2.77a4.07,4.07,0,0,0,.22,3l3.18,6.25.19.38a.2.2,0,0,0,.22.14.25.25,0,0,0,.22-.14l.21-.4C18.4,10.73,20.38,6.87,20.9,5.82Zm-3.59.51A2.3,2.3,0,0,1,15,4h0a2.31,2.31,0,0,1,2.3-2.31h0A2.31,2.31,0,0,1,19.62,4h0a2.3,2.3,0,0,1-2.31,2.31Z" transform="translate(0 0)"/>
    </g>
  </g>
</svg>
