<svg id="Hivestack_logo_EN" xmlns="http://www.w3.org/2000/svg" width="146.702" height="41.485" viewBox="0 0 146.702 41.485">
  <path id="Path" d="M79.738,26.092l-7.006,0,0-6.346h-3.2l.006,15.867h3.2l0-6.347,7.007,0,0,6.346h3.194l0-15.867h-3.2Z" transform="translate(-24.428 -6.936)" fill="#fff"/>
  <rect id="Rectangle" width="3.013" height="11.334" transform="translate(61.254 17.339)" fill="#fff"/>
  <path id="Path-2" data-name="Path" d="M95.7,16.843a1.915,1.915,0,1,0,1.944,1.926A1.9,1.9,0,0,0,95.7,16.843Z" transform="translate(-32.947 -5.917)" fill="#fff"/>
  <path id="Path-3" data-name="Path" d="M107.527,33.752l-2.9-7.026h-3.378l5.139,11.332h2.282L113.8,26.723h-3.355Z" transform="translate(-35.569 -9.388)" fill="#fff"/>
  <path id="Shape" d="M126.763,26.3a5.633,5.633,0,0,0-5.84,5.941c0,3.377,2.261,5.938,6.118,5.936a6.841,6.841,0,0,0,4.541-1.5l-1.263-2.471a4.873,4.873,0,0,1-3.24,1.153,2.956,2.956,0,0,1-3.059-2.175L124,33.143h8.4v-.816C132.4,28.678,130.252,26.3,126.763,26.3Zm-2.787,4.67a2.556,2.556,0,0,1,2.691-2.132,2.287,2.287,0,0,1,2.443,2.131Z" transform="translate(-42.481 -9.24)" fill="#fff"/>
  <path id="Path-4" data-name="Path" d="M146.577,30.917c-2.031-.43-2.647-.566-2.648-1.133,0-.5.525-.793,1.461-.794a4.359,4.359,0,0,1,3.081,1.153l1.689-2.177a6.081,6.081,0,0,0-4.543-1.676c-2.989,0-4.815,1.317-4.814,3.607,0,2.471,2.1,3.241,3.789,3.58,1.922.407,2.533.543,2.534,1.153,0,.635-.685.865-1.529.865a4.558,4.558,0,0,1-3.607-1.472l-1.757,2.267c1.005,1.269,2.876,1.881,5.067,1.881,3.035,0,4.929-1.113,4.928-3.7C150.229,32.094,148.563,31.346,146.577,30.917Z" transform="translate(-49.265 -9.236)" fill="#fff"/>
  <path id="Path-5" data-name="Path" d="M162.346,22.025h-3.013v3.038h-2.077v2.516h2.077v5.35c0,2.584,1.233,3.581,3.356,3.58a10.908,10.908,0,0,0,2.464-.34V33.335a9.511,9.511,0,0,1-1.666.183c-.776,0-1.141-.3-1.142-1.02V27.579h2.9V25.062h-2.9Z" transform="translate(-55.245 -7.738)" fill="#fff"/>
  <path id="Shape-2" data-name="Shape" d="M177.456,26.319c-2.487,0-4.336.865-5.093,2.563l2.237,1.586a2.846,2.846,0,0,1,2.852-1.451c1.345,0,1.985.475,1.985,1.132v.182c0,.272-.16.408-.593.454l-3.121.278c-2.1.2-3.652,1.5-3.652,3.561a3.549,3.549,0,0,0,3.858,3.535,4.048,4.048,0,0,0,3.514-1.769v1.538h3.013v-7C182.454,27.768,180.788,26.318,177.456,26.319Zm1.987,7a2.426,2.426,0,0,1-2.624,2.335c-1.049,0-1.62-.476-1.62-1.2,0-.635.481-1.111,1.415-1.249l2.829-.341Z" transform="translate(-60.45 -9.246)" fill="#fff"/>
  <path id="Path-6" data-name="Path" d="M196.672,35.231a3.015,3.015,0,0,1,0-6.029,3.626,3.626,0,0,1,2.626,1.132l1.711-2.4a6.012,6.012,0,0,0-4.337-1.653,5.749,5.749,0,0,0-6.091,5.941,5.713,5.713,0,0,0,6.05,5.937,6.131,6.131,0,0,0,4.4-1.679l-1.666-2.4A3.761,3.761,0,0,1,196.672,35.231Z" transform="translate(-66.951 -9.232)" fill="#fff"/>
  <path id="Path-7" data-name="Path" d="M220.112,24.233l-3.994,0-4.13,4.353,0-8.886h-3.012l0,15.868h3.013l0-3.287,1.187-1.157,3.06,4.442h3.88l-4.909-6.459Z" transform="translate(-73.414 -6.922)" fill="#fff"/>
  <path id="Path-8" data-name="Path" d="M19.22,0,3.381,9.117l3.186,1.831L19.221,3.664l12.69,7.292L35.1,9.125Z" transform="translate(-1.188)" fill="#fff"/>
  <path id="Path-9" data-name="Path" d="M19.208,54.342,6.5,47.038,3.311,48.87l15.9,9.135,15.9-9.151-3.186-1.831Z" transform="translate(-1.163 -16.52)" fill="#fff"/>
  <path id="Path-10" data-name="Path" d="M32.882,21.634l0,4.465h0l-7.777,0-5.442,0H16.452l-5.433,0-7.825,0h0l0-4.5L0,19.775,0,35.556,3.2,33.722V29.28h0l7.736,0,5.6,0h3.053l5.593,0,7.706,0h0V33.7l3.193,1.835L36.074,19.8Z" transform="translate(0 -6.947)" fill="#fff"/>
</svg>
