<svg id="Layer_1" data-name="Layer 1" xmlns="http://www.w3.org/2000/svg" viewBox="0 0 25.67 25.67">
  <path id="Path_111" data-name="Path 111" d="M4.38,23.79h15v.63a1.25,1.25,0,0,1-1.25,1.25H1.25A1.25,1.25,0,0,1,0,24.42V7.51A1.25,1.25,0,0,1,1.25,6.26h.63v15A2.5,2.5,0,0,0,4.38,23.79ZM5,18.16v-15H4.38A1.25,1.25,0,0,0,3.13,4.38V21.29a1.25,1.25,0,0,0,1.25,1.25H21.29a1.25,1.25,0,0,0,1.25-1.25v-.63h-15A2.5,2.5,0,0,1,5,18.16ZM25.67,1.25V14.09L17.28,8l0,0s0,0-.06,0,0,0-.06,0,0,0-.07,0h-.25s-.06,0-.06,0a0,0,0,0,0,0,0h0s0,0-.06,0a0,0,0,0,0,0,0h0s0,0-.07,0l0,0,0,0h0L7.83,19.41H7.51a1.25,1.25,0,0,1-1.25-1.25V1.25A1.25,1.25,0,0,1,7.51,0H24.42A1.25,1.25,0,0,1,25.67,1.25ZM13.15,4.38a2.5,2.5,0,1,0-2.5,2.5A2.5,2.5,0,0,0,13.15,4.38Zm-3.76,15h15a1.25,1.25,0,0,0,1.25-1.25v-2.5L17,9.33ZM10.65,3.13A1.25,1.25,0,1,0,11.9,4.38,1.24,1.24,0,0,0,10.65,3.13Z"/>
</svg>
