<svg id="noun_creative_3689719" data-name="noun creative 3689719" xmlns="http://www.w3.org/2000/svg" viewBox="0 0 27.29 27.28">
  <path id="Path_112" data-name="Path 112" d="M25,14.71l-1.45-1.45a.5.5,0,0,0-.66,0l-1.47,1c-.23-.11-.47-.21-.71-.3l-.31-1.76a.52.52,0,0,0-.51-.43h-2a.52.52,0,0,0-.51.43L17,13.94a4.87,4.87,0,0,0-.71.3l-1.46-1a.49.49,0,0,0-.65,0l-1.44,1.45a.49.49,0,0,0-.06.65l1,1.48a6.65,6.65,0,0,0-.28.69l-1.8.31a.52.52,0,0,0-.43.51v2a.52.52,0,0,0,.43.51l1.81.31a6.35,6.35,0,0,0,.28.67l-1.06,1.5a.51.51,0,0,0,.06.66l1.44,1.44a.51.51,0,0,0,.66.05l1.52-1.06a5.18,5.18,0,0,0,.65.26l.31,1.83a.52.52,0,0,0,.51.43h2a.52.52,0,0,0,.51-.43l.31-1.83c.22-.08.44-.16.66-.26l1.51,1.06a.5.5,0,0,0,.66-.05L25,24a.52.52,0,0,0,.05-.66L24,21.88a5.72,5.72,0,0,0,.28-.68l1.8-.3a.52.52,0,0,0,.43-.51v-2a.52.52,0,0,0-.43-.51l-1.79-.31a6.65,6.65,0,0,0-.28-.69l1.05-1.48A.51.51,0,0,0,25,14.71Zm-6.12,7.5a2.84,2.84,0,1,1,2.84-2.84h0a2.84,2.84,0,0,1-2.84,2.83Z" transform="translate(0 0)"/>
  <path id="Path_113" data-name="Path 113" d="M3.12,18.66l4,1.1a.58.58,0,0,1,.4.4l1.1,4L11,21.82a1.59,1.59,0,0,1-.83-1.42v-2a1.64,1.64,0,0,1,1.37-1.62l.71-.12L11.79,16A1.64,1.64,0,0,1,12,13.89l1.43-1.43a1.63,1.63,0,0,1,2.11-.18l.59.41.12-.71a1.66,1.66,0,0,1,1.63-1.37h2a1.65,1.65,0,0,1,1.43.83l1.79-1.78-5.5-5.5Z" transform="translate(0 0)"/>
  <path id="Path_114" data-name="Path 114" d="M.57,27.28a.58.58,0,0,0,.19,0L7.6,24.73,6.5,20.78l-4-1.1L0,26.51a.56.56,0,0,0,.13.6A.54.54,0,0,0,.57,27.28Z" transform="translate(0 0)"/>
  <path id="Path_115" data-name="Path 115" d="M23.4,0a3.89,3.89,0,0,0-2.75,1.14L18.43,3.35l5.5,5.5,2.22-2.21a3.87,3.87,0,0,0,0-5.47v0A3.9,3.9,0,0,0,23.4,0Z" transform="translate(0 0)"/>
</svg>
