<svg id="Layer_1" data-name="Layer 1" xmlns="http://www.w3.org/2000/svg" viewBox="0 0 33.12 33.12">
  <path id="Path_107" data-name="Path 107" d="M16.56,0A16.56,16.56,0,1,0,33.12,16.56h0A16.58,16.58,0,0,0,16.56,0Zm0,3.17a13.4,13.4,0,0,1,12.86,9.66,51.16,51.16,0,0,0-12.86-1.74A51.29,51.29,0,0,0,3.7,12.83,13.41,13.41,0,0,1,16.56,3.17Zm0,17.57a3.32,3.32,0,1,1,3.31-3.31,3.31,3.31,0,0,1-3.31,3.31ZM3.42,19.16a9.84,9.84,0,0,1,9.69,10v.36A13.46,13.46,0,0,1,3.42,19.16ZM20,29.5v-.26a9.84,9.84,0,0,1,9.59-10.08h.09A13.44,13.44,0,0,1,20,29.5Z" transform="translate(0 0)"/>
</svg>
