<svg xmlns="http://www.w3.org/2000/svg" width="91.982" height="10.833" viewBox="0 0 91.982 10.833">
  <g id="Horizontal_Logo" data-name="Horizontal Logo" transform="translate(-34.325 -23.316)">
    <path id="Path_27" data-name="Path 27" d="M46.028,34,44.448,31.35H39.459l.87-1.494h3.234l-2.349-3.944L36.428,34h-2.1L40.387,23.91a1.4,1.4,0,0,1,.377-.435.86.86,0,0,1,.522-.159.829.829,0,0,1,.515.159,1.452,1.452,0,0,1,.37.435L48.247,34Z" transform="translate(0 0)"/>
    <path id="Path_28" data-name="Path 28" d="M121.7,34.7V24.157h1.842v8.7h7.092V34.7Z" transform="translate(-72.322 -0.696)"/>
    <path id="Path_29" data-name="Path 29" d="M181.212,34.7V24.157h1.842v8.7h6.331V34.7Z" transform="translate(-121.581 -0.696)"/>
    <path id="Path_30" data-name="Path 30" d="M217.214,24.157h2.248l4.786,8.121,4.771-8.121h2.117L225.06,34.25a1.391,1.391,0,0,1-.377.435.836.836,0,0,1-.508.16.858.858,0,0,1-.522-.16,1.392,1.392,0,0,1-.377-.435Z" transform="translate(-151.381 -0.696)"/>
    <path id="Path_31" data-name="Path 31" d="M305.179,34.7V24.157h1.842V34.7Z" transform="translate(-224.191 -0.696)"/>
    <path id="Path_32" data-name="Path 32" d="M326.3,34.7V32.858h7.9a1.594,1.594,0,0,0,1.138-.377,1.311,1.311,0,0,0,.4-1,1.27,1.27,0,0,0-.4-1.022,1.7,1.7,0,0,0-1.138-.341h-4.844a3.805,3.805,0,0,1-1.341-.225A2.9,2.9,0,0,1,327,29.269a2.742,2.742,0,0,1-.638-.95,3.157,3.157,0,0,1-.225-1.2,3.246,3.246,0,0,1,.21-1.182,2.527,2.527,0,0,1,.623-.935A2.954,2.954,0,0,1,328,24.382a4.014,4.014,0,0,1,1.392-.225h7.57V26h-7.57a1.351,1.351,0,0,0-.986.341,1.269,1.269,0,0,0-.348.95,1.23,1.23,0,0,0,.355.943,1.351,1.351,0,0,0,.964.333H334.2a3.53,3.53,0,0,1,2.443.754,2.937,2.937,0,0,1,.834,2.291,3.624,3.624,0,0,1-.2,1.233,2.664,2.664,0,0,1-.609.979,2.783,2.783,0,0,1-1.022.645,4.084,4.084,0,0,1-1.443.232Z" transform="translate(-241.54 -0.696)"/>
    <path id="Path_33" data-name="Path 33" d="M401.727,34.7V24.157h1.842V34.7Z" transform="translate(-304.105 -0.696)"/>
    <path id="Path_34" data-name="Path 34" d="M426.965,34.7a4.987,4.987,0,0,1-2.038-.413,5.018,5.018,0,0,1-2.7-2.835,5.822,5.822,0,0,1-.384-2.132,5.637,5.637,0,0,1,.384-2.117,4.7,4.7,0,0,1,1.073-1.632,4.83,4.83,0,0,1,1.624-1.044,5.488,5.488,0,0,1,2.038-.37h2.567a5.633,5.633,0,0,1,2.1.377,4.669,4.669,0,0,1,2.69,2.69,5.635,5.635,0,0,1,.377,2.1,5.821,5.821,0,0,1-.384,2.132,5.111,5.111,0,0,1-1.073,1.7,5.047,5.047,0,0,1-1.632,1.131,5.112,5.112,0,0,1-2.074.413Zm2.567-1.842a3.35,3.35,0,0,0,1.334-.261,3.148,3.148,0,0,0,1.74-1.813,3.788,3.788,0,0,0,.247-1.378,3.734,3.734,0,0,0-.247-1.37,3.1,3.1,0,0,0-1.74-1.784A3.436,3.436,0,0,0,429.532,26h-2.567a3.343,3.343,0,0,0-1.313.254,3.1,3.1,0,0,0-1.037.7,3.233,3.233,0,0,0-.682,1.073,3.718,3.718,0,0,0-.246,1.378,3.788,3.788,0,0,0,.246,1.378,3.285,3.285,0,0,0,.682,1.1,3.14,3.14,0,0,0,1.037.718,3.26,3.26,0,0,0,1.313.261Z" transform="translate(-320.758 -0.696)"/>
    <path id="Path_35" data-name="Path 35" d="M506.6,26.359v7.715h-1.755V24.5a1.2,1.2,0,0,1,.254-.8.858.858,0,0,1,.689-.3.926.926,0,0,1,.392.087,1.406,1.406,0,0,1,.391.29l7.44,7.382V23.444h1.755V33.1a1.193,1.193,0,0,1-.254.812.835.835,0,0,1-.66.29,1.178,1.178,0,0,1-.841-.392Z" transform="translate(-389.456 -0.07)"/>
  </g>
</svg>
