<svg id="Layer_1" data-name="Layer 1" xmlns="http://www.w3.org/2000/svg" viewBox="0 0 86.81 37.66">
  <g id="Footer_Icon" data-name="Footer Icon">
    <path id="Path_38" data-name="Path 38" d="M40.68,37.15l-5.49-9.23H17.84l3-5.18H32.11L23.94,9,7.31,37.15H0L21.07,2.07A5,5,0,0,1,22.38.55,3,3,0,0,1,24.2,0,2.88,2.88,0,0,1,26,.55a5.06,5.06,0,0,1,1.28,1.52L48.39,37.15Z" transform="translate(0 0)" fill="#fff"/>
    <path id="Path_39" data-name="Path 39" d="M38.42.5h7.81L62.87,28.73,79.45.5h7.36L65.69,35.59a5,5,0,0,1-1.31,1.51,2.9,2.9,0,0,1-1.77.55,2.93,2.93,0,0,1-1.81-.55,4.74,4.74,0,0,1-1.31-1.51Z" transform="translate(0 0)" fill="#fff"/>
  </g>
</svg>
